<?xml version="1.0" encoding="UTF-8"?>
<svg version="1.1" xmlns="http://www.w3.org/2000/svg" width="512" height="512">
<path d="M0 0 C1.16170715 -0.01283524 2.32341431 -0.02567047 3.52032471 -0.03889465 C5.41243683 -0.04997505 5.41243683 -0.04997505 7.34277344 -0.0612793 C9.28153351 -0.07338692 9.28153351 -0.07338692 11.25946045 -0.08573914 C13.99995798 -0.10076802 16.74042958 -0.11060428 19.48095703 -0.11816406 C22.98260941 -0.12921028 26.48362309 -0.16358784 29.9850502 -0.20333576 C33.33343192 -0.23585527 36.68174601 -0.24028584 40.03027344 -0.2487793 C41.91024017 -0.27504143 41.91024017 -0.27504143 43.82818604 -0.30183411 C54.88192092 -0.27429599 54.88192092 -0.27429599 59.45214844 4.17700195 C63.0393596 8.70128332 64.03460774 12.12027699 63.96681213 17.77430725 C63.97375766 18.5191125 63.98070319 19.26391775 63.98785919 20.03129286 C64.00609392 22.51645024 63.99587534 25.00064919 63.9855957 27.48583984 C63.99265588 29.27170016 64.00140131 31.05755449 64.01170349 32.84339905 C64.0341932 37.6862984 64.03125918 42.5288709 64.02238202 47.37180257 C64.01727089 51.41528397 64.0245655 55.45870401 64.03185409 59.50217909 C64.04885091 69.0394305 64.0452884 78.5765219 64.02856445 88.11376953 C64.0116314 97.9546361 64.02749446 107.79505948 64.05978733 117.63587767 C64.08646704 126.0861464 64.09376397 134.53627703 64.08527225 142.98658365 C64.08033977 148.03318429 64.08257646 153.07951806 64.10305977 158.12608528 C64.12139223 162.86966838 64.11548814 167.61261253 64.09086037 172.35616112 C64.08584528 174.09723719 64.08936032 175.83836176 64.10200882 177.57939911 C64.11790879 179.95589694 64.1030206 182.33028261 64.08033752 184.7066803 C64.09217325 185.39617596 64.10400898 186.08567163 64.11620337 186.7960611 C64.04325252 190.55595471 63.49812606 192.11889332 61.13554287 195.10483456 C58.45214844 197.17700195 58.45214844 197.17700195 54.88964844 197.80200195 C51.45214844 197.17700195 51.45214844 197.17700195 49.26736832 195.09312153 C46.98835433 191.43192469 46.95887699 189.19196192 46.97113037 184.89408875 C46.96771267 184.17111141 46.96429497 183.44813407 46.96077371 182.70324832 C46.95419683 180.28613428 46.97616632 177.87013633 46.99804688 175.453125 C46.9991754 173.71841966 46.99854139 171.98371241 46.99627686 170.24900818 C46.99512898 165.54267534 47.01865026 160.8367501 47.04657269 156.130512 C47.07157399 151.21111857 47.07392734 146.29171584 47.07867432 141.37226868 C47.09110782 132.05794565 47.12393454 122.74381037 47.16407228 113.42957002 C47.20877829 102.82508742 47.23077409 92.22059587 47.25085402 81.61604249 C47.29266685 59.80290091 47.36602395 37.9900167 47.45214844 16.17700195 C31.94214844 16.17700195 16.43214844 16.17700195 0.45214844 16.17700195 C0.45214844 139.26700195 0.45214844 262.35700195 0.45214844 389.17700195 C15.96214844 389.17700195 31.47214844 389.17700195 47.45214844 389.17700195 C47.43643799 384.10873047 47.42072754 379.04045898 47.40454102 373.81860352 C47.35490761 357.10269164 47.32157183 340.38677692 47.29671192 323.6708107 C47.28123402 313.53253681 47.26012687 303.39433265 47.22583008 293.25610352 C47.19595597 284.42103268 47.17658015 275.58601234 47.16988295 266.7508924 C47.16596732 262.0714771 47.1567459 257.39220628 47.13495827 252.71283722 C47.11462452 248.31012928 47.10830832 243.90762562 47.11282539 239.50487518 C47.1119988 237.88753653 47.10601459 236.27019117 47.09453201 234.65289307 C47.07963622 232.446993 47.08318366 230.24186717 47.09138489 228.03594971 C47.08861951 226.80074711 47.08585413 225.56554451 47.08300495 224.29291153 C47.48381969 220.90966749 48.01910887 219.52576904 50.45214844 217.17700195 C54.42559005 216.07326817 56.54214615 215.76156613 60.32714844 217.48950195 C62.45214844 219.17700195 62.45214844 219.17700195 63.45214844 221.17700195 C63.54666923 223.38148689 63.57404715 225.58893091 63.57240295 227.79544067 C63.57368459 228.82705914 63.57368459 228.82705914 63.57499212 229.87951839 C63.57664549 232.19501427 63.57112789 234.51043847 63.56567383 236.82592773 C63.5653919 238.48137409 63.5655498 240.13682057 63.56611633 241.79226685 C63.56640409 246.29614789 63.56051092 250.80000248 63.55354238 255.30387735 C63.54730517 260.00709812 63.54670475 264.71031944 63.54551697 269.4135437 C63.54240474 278.32414034 63.5341928 287.23472476 63.52416748 296.145316 C63.51300299 306.28785215 63.50749504 316.43038887 63.50247204 326.57292962 C63.49201011 347.44096056 63.47441275 368.30898049 63.45214844 389.17700195 C64.34417969 389.11899414 65.23621094 389.06098633 66.15527344 389.0012207 C67.32574219 388.95610352 68.49621094 388.91098633 69.70214844 388.86450195 C70.86230469 388.80649414 72.02246094 388.74848633 73.21777344 388.6887207 C76.45214844 389.17700195 76.45214844 389.17700195 78.87792969 391.4699707 C80.45214844 394.17700195 80.45214844 394.17700195 80.38964844 397.80200195 C79.11857152 402.37787886 79.11857152 402.37787886 76.45214844 404.17700195 C73.68661692 404.47295024 71.14593526 404.58289432 68.37919712 404.560112 C67.54287737 404.56507151 66.70655763 404.57003103 65.84489486 404.57514083 C63.01782918 404.58818481 60.19122904 404.57968456 57.364151 404.57141113 C55.32675779 404.57629587 53.28936736 404.58248373 51.25198168 404.58986902 C45.63406345 404.60634453 40.01628484 404.6039352 34.39835083 404.59849405 C28.34712806 404.5958332 22.2959433 404.61033779 16.24473572 404.62258911 C4.38250842 404.64368516 -7.47967139 404.64820039 -19.34191077 404.64640123 C-28.9794933 404.6450296 -38.61706096 404.64883875 -48.25464058 404.65632629 C-49.63794067 404.65737662 -51.02124076 404.65842423 -52.40454086 404.65946916 C-53.43449358 404.66024817 -53.43449358 404.66024817 -54.48525343 404.66104293 C-55.51706218 404.66182314 -55.51706218 404.66182314 -56.56971556 404.66261911 C-57.25871574 404.66314311 -57.94771593 404.6636671 -58.6575949 404.66420697 C-78.04366416 404.67879598 -97.42972795 404.68707021 -116.81580257 404.68245697 C-117.91265364 404.68219904 -117.91265364 404.68219904 -119.03166332 404.6819359 C-122.73807435 404.68104697 -126.44448536 404.68010216 -130.15089636 404.67913789 C-130.88703675 404.67894685 -131.62317714 404.67875582 -132.38162481 404.678559 C-133.87028028 404.67817191 -135.35893576 404.67778158 -136.84759123 404.67738802 C-160.01554107 404.67141684 -183.18339104 404.68685914 -206.35131836 404.71899414 C-232.36463407 404.755045 -258.37788646 404.77440736 -284.39122874 404.76945543 C-287.16323474 404.76898543 -289.93524076 404.76857519 -292.70724678 404.76820374 C-293.7310975 404.76805016 -293.7310975 404.76805016 -294.77563207 404.76789347 C-305.09373067 404.76669707 -315.41176102 404.77868631 -325.72984123 404.79734802 C-337.46001591 404.8185531 -349.19007257 404.8220057 -360.92026251 404.80304843 C-366.90959466 404.79385812 -372.89864063 404.79284812 -378.8879509 404.81340408 C-384.36485667 404.83199416 -389.84123948 404.82774586 -395.3181246 404.80485827 C-397.30530765 404.80064208 -399.29252987 404.80497263 -401.27967166 404.81845421 C-403.97011023 404.83547203 -406.65869303 404.82203422 -409.3490591 404.80062103 C-410.52083068 404.81903732 -410.52083068 404.81903732 -411.71627441 404.83782566 C-415.52935449 404.77392123 -417.21366982 404.48410245 -420.06418234 401.86458826 C-422.08856242 398.19753356 -421.65244923 396.15355355 -420.54785156 392.17700195 C-419.40722656 390.4777832 -419.40722656 390.4777832 -417.54785156 389.17700195 C-414.41113281 388.8840332 -414.41113281 388.8840332 -410.86035156 388.98950195 C-409.68085938 389.01657227 -408.50136719 389.04364258 -407.28613281 389.0715332 C-405.93068359 389.12374023 -405.93068359 389.12374023 -404.54785156 389.17700195 C-404.55061694 388.49193258 -404.55338232 387.80686321 -404.5562315 387.10103416 C-404.62250909 370.42523706 -404.67214076 353.74948173 -404.70328808 337.0735836 C-404.71875138 329.00921267 -404.73983059 320.9449297 -404.77416992 312.88061523 C-404.80408877 305.85105919 -404.82343047 298.82156686 -404.83011705 291.79194891 C-404.83402511 288.07043102 -404.84319828 284.34909539 -404.86504173 280.62763596 C-404.88923932 276.47132053 -404.88981996 272.3153212 -404.88842773 268.15893555 C-404.89921356 266.92750824 -404.90999939 265.69608093 -404.92111206 264.42733765 C-404.88301858 253.93642153 -404.88301858 253.93642153 -401.54785156 249.17700195 C-397.14827926 245.10739757 -393.97250634 244.05666712 -388.07006836 244.01586914 C-386.94847824 244.0062616 -385.82688812 243.99665405 -384.67131042 243.98675537 C-382.85256157 243.98038055 -382.85256157 243.98038055 -380.99707031 243.97387695 C-379.75037064 243.96817688 -378.50367096 243.96247681 -377.2191925 243.956604 C-374.57878978 243.94715029 -371.9385008 243.94025542 -369.2980957 243.93676758 C-366.59483375 243.93237758 -363.89189003 243.91846629 -361.1887207 243.89575195 C-357.29140524 243.86529116 -353.39449156 243.85471939 -349.49707031 243.84887695 C-348.29064377 243.83653015 -347.08421722 243.82418335 -345.8412323 243.8114624 C-335.31265376 243.83939874 -335.31265376 243.83939874 -330.54785156 247.17700195 C-326.48101233 251.57358491 -325.42207767 254.72471054 -325.42759705 260.62492371 C-325.42553505 262.32235466 -325.42553505 262.32235466 -325.4234314 264.05407715 C-325.42882431 265.91739685 -325.42882431 265.91739685 -325.43432617 267.81835938 C-325.43418015 269.12577591 -325.43403412 270.43319244 -325.43388367 271.78022766 C-325.43359642 275.3667262 -325.43948149 278.95319138 -325.44645762 282.53968215 C-325.45270317 286.28730205 -325.45329591 290.03492269 -325.45448303 293.782547 C-325.4575928 300.87981432 -325.46580142 307.97706627 -325.47583252 315.07432681 C-325.48700465 323.15404706 -325.49250689 331.23376804 -325.49752796 339.31349409 C-325.50798432 355.93467264 -325.52577803 372.55583473 -325.54785156 389.17700195 C-319.60785156 389.17700195 -313.66785156 389.17700195 -307.54785156 389.17700195 C-307.55784431 385.79894569 -307.55784431 385.79894569 -307.56803894 382.35264587 C-307.62932896 361.14887581 -307.67398244 339.94511741 -307.70328808 318.74127865 C-307.7187556 307.83969055 -307.73984299 296.93816746 -307.77416992 286.03662109 C-307.80407571 276.53460905 -307.8234274 267.0326441 -307.83011705 257.5305863 C-307.83402729 252.49952304 -307.84321463 247.46859447 -307.86504173 242.43757439 C-307.88542545 237.70080515 -307.89168152 232.96422592 -307.88717461 228.22741699 C-307.88799896 226.49039744 -307.89395337 224.75337143 -307.90546799 223.01638985 C-307.92044181 220.64077582 -307.91678766 218.26587481 -307.90861511 215.89024353 C-307.91735364 215.20637178 -307.92609216 214.52250003 -307.93509549 213.81790489 C-307.88091887 207.97288617 -306.33392356 203.53716853 -302.79785156 198.86450195 C-296.66930257 194.26809021 -289.08120917 194.87002951 -281.77050781 194.8762207 C-280.08253334 194.86979301 -280.08253334 194.86979301 -278.36045837 194.86323547 C-275.98778962 194.85750918 -273.61510332 194.85697933 -271.24243164 194.86132812 C-267.62583291 194.86448843 -264.01005247 194.8410053 -260.39355469 194.81567383 C-258.08170676 194.8134006 -255.76985664 194.81269745 -253.45800781 194.8137207 C-252.38382095 194.80451096 -251.30963409 194.79530121 -250.20289612 194.78581238 C-243.94321545 194.82411768 -239.21955075 195.45837316 -233.54785156 198.17700195 C-228.85819282 202.98690835 -228.40086686 207.03115369 -228.42759705 213.4851532 C-228.42631541 214.60993323 -228.42631541 214.60993323 -228.42500788 215.7574361 C-228.42335708 218.2771169 -228.42886794 220.79673155 -228.43432617 223.31640625 C-228.43460816 225.11978148 -228.43445009 226.92315682 -228.43388367 228.72653198 C-228.43359613 233.62910055 -228.43948584 238.53164478 -228.44645762 243.43420768 C-228.4526984 248.55516166 -228.45329554 253.67611617 -228.45448303 258.79707336 C-228.45759421 268.4974123 -228.46580473 278.19773999 -228.47583252 287.89807397 C-228.48700028 298.94025358 -228.49250578 309.98243371 -228.49752796 321.02461755 C-228.50798751 343.74208547 -228.52578368 366.45954261 -228.54785156 389.17700195 C-222.27785156 389.17700195 -216.00785156 389.17700195 -209.54785156 389.17700195 C-209.55153873 387.7291802 -209.55522591 386.28135845 -209.55902481 384.78966331 C-209.64563722 350.42912959 -209.7116041 316.06861349 -209.75211288 281.70799371 C-209.75711577 277.47972673 -209.76229305 273.25145999 -209.76757812 269.02319336 C-209.76862737 268.18141386 -209.76967661 267.33963435 -209.77075765 266.47234638 C-209.78816768 252.83845968 -209.81970867 239.20464038 -209.85646275 225.57079367 C-209.89385552 211.58347541 -209.91608389 197.59619247 -209.92420554 183.60882628 C-209.92969678 174.97632996 -209.94704659 166.34402412 -209.97951743 157.71158643 C-210.00064479 151.79374611 -210.00705565 145.8760044 -210.00185707 139.95812909 C-209.99929249 136.54265567 -210.00325156 133.12751534 -210.02467346 129.71210098 C-210.04451602 126.0092462 -210.03981061 122.30721259 -210.02886963 118.6043396 C-210.04052099 117.52456923 -210.05217236 116.44479886 -210.0641768 115.33230817 C-210.01580572 109.29357851 -209.59588661 105.76570998 -205.54785156 101.17700195 C-201.87819065 98.3204072 -199.16786957 97.79692453 -194.56762695 97.77294922 C-193.38612564 97.76026505 -192.20462433 97.74758087 -190.98731995 97.73451233 C-189.71952194 97.73744797 -188.45172394 97.74038361 -187.14550781 97.7434082 C-185.8350499 97.73816635 -184.52459198 97.7329245 -183.17442322 97.7275238 C-180.40467683 97.71860613 -177.63521898 97.72099997 -174.86547852 97.73095703 C-171.32683068 97.74244252 -167.78918141 97.72223667 -164.25066471 97.69303989 C-160.86139379 97.67021532 -157.47235365 97.67714717 -154.08300781 97.6809082 C-152.81723404 97.66967422 -151.55146027 97.65844025 -150.24732971 97.64686584 C-139.10669808 97.7350855 -139.10669808 97.7350855 -134.54785156 102.17700195 C-130.46157443 107.0486795 -131.13841692 112.45384776 -131.18708801 118.48408508 C-131.18452474 119.63991897 -131.18196146 120.79575286 -131.17932051 121.98661202 C-131.17523443 125.19069488 -131.18460619 128.39441339 -131.1996547 131.59845316 C-131.21261264 135.05511179 -131.20822577 138.51175349 -131.20594788 141.96842957 C-131.20437499 147.95596146 -131.21378579 153.94339526 -131.23066139 159.93090248 C-131.25504473 168.58781144 -131.26285598 177.24467297 -131.26662537 185.90161254 C-131.2731909 199.9469678 -131.29315482 213.99227078 -131.3215332 228.03759766 C-131.34907114 241.68114968 -131.37030602 255.32468751 -131.38305664 268.96826172 C-131.38384481 269.80928085 -131.38463298 270.65029999 -131.38544504 271.51680455 C-131.38936015 275.73595939 -131.39315128 279.95511432 -131.39688075 284.17426932 C-131.42797982 319.17521782 -131.48104143 354.17610421 -131.54785156 389.17700195 C-125.27785156 389.17700195 -119.00785156 389.17700195 -112.54785156 389.17700195 C-112.55673401 386.28603256 -112.56561646 383.39506317 -112.57476807 380.41648865 C-112.65437884 353.90041278 -112.71408682 327.3843398 -112.75211288 300.86817255 C-112.75711565 297.39225803 -112.76229295 293.91634379 -112.76757812 290.44042969 C-112.76862737 289.74844323 -112.76967661 289.05645678 -112.77075765 288.34350104 C-112.78815876 277.14169601 -112.81969481 265.93997316 -112.85646275 254.73821687 C-112.8938804 243.24256755 -112.91578977 231.74697603 -112.92420554 220.25126702 C-112.92942331 213.79495148 -112.94169914 207.3388223 -112.97077179 200.88256645 C-112.99791191 194.80627172 -113.00629925 188.7302402 -113.00028229 182.65389061 C-113.00138314 180.42342448 -113.00934513 178.19294959 -113.02467346 175.96253586 C-113.04457889 172.91683404 -113.03978819 169.87212562 -113.02886963 166.82640076 C-113.04052099 165.94409064 -113.05217236 165.06178053 -113.0641768 164.15273374 C-113.00783265 158.3367421 -111.89434489 154.96422153 -108.54785156 150.17700195 C-104.39652755 146.60408111 -100.22183296 146.65902262 -94.98535156 146.67700195 C-94.23060547 146.64864258 -93.47585938 146.6202832 -92.69824219 146.59106445 C-88.78715422 146.57728088 -86.94836646 146.81233561 -84.01660156 149.48168945 C-82.01527246 153.15434127 -82.44443696 155.2047094 -83.54785156 159.17700195 C-85.12671122 161.23638412 -86.23927579 162.02271407 -88.54785156 163.17700195 C-91.18785156 163.17700195 -93.82785156 163.17700195 -96.54785156 163.17700195 C-96.54785156 237.75700195 -96.54785156 312.33700195 -96.54785156 389.17700195 C-81.03785156 389.17700195 -65.52785156 389.17700195 -49.54785156 389.17700195 C-49.54785156 314.59700195 -49.54785156 240.01700195 -49.54785156 163.17700195 C-52.18785156 163.17700195 -54.82785156 163.17700195 -57.54785156 163.17700195 C-62.11729601 161.03811306 -62.11729601 161.03811306 -63.54785156 158.17700195 C-64.11987129 151.99918888 -64.11987129 151.99918888 -62.02050781 148.98168945 C-58.65329873 146.52410557 -55.68307666 146.58870342 -51.67285156 146.67700195 C-50.63064453 146.65379883 -50.63064453 146.65379883 -49.56738281 146.63012695 C-44.42362587 146.66887465 -41.51675767 147.98759614 -37.54785156 151.17700195 C-34.1747311 154.89906591 -33.42211717 158.32865853 -33.42480373 163.26118851 C-33.42281269 164.07033368 -33.42082164 164.87947886 -33.41877025 165.71314359 C-33.4216831 166.59641033 -33.42459594 167.47967707 -33.42759705 168.38970947 C-33.42631541 169.80366159 -33.42631541 169.80366159 -33.42500788 171.24617839 C-33.42335765 174.41226637 -33.42886702 177.57830165 -33.43432617 180.74438477 C-33.43460817 183.0109558 -33.43445007 185.27752692 -33.43388367 187.5440979 C-33.43359618 193.70482955 -33.43948512 199.86554182 -33.44645762 206.02626896 C-33.45269919 212.46182724 -33.4532956 218.89738594 -33.45448303 225.33294678 C-33.45724028 236.13708879 -33.46349102 246.94122283 -33.47241211 257.74536133 C-33.48159127 268.87361617 -33.48866964 280.00186909 -33.49291992 291.13012695 C-33.49331401 292.15906409 -33.49331401 292.15906409 -33.49371605 293.20878783 C-33.49502109 296.65004167 -33.4962848 300.09129552 -33.49752796 303.53254938 C-33.50789449 332.0807052 -33.52578274 360.62885295 -33.54785156 389.17700195 C-27.60785156 389.17700195 -21.66785156 389.17700195 -15.54785156 389.17700195 C-15.55061694 387.2344219 -15.55338232 385.29184185 -15.5562315 383.29039574 C-15.62117483 337.19977285 -15.67065797 291.10915498 -15.70104755 245.01849576 C-15.70479977 239.34818655 -15.70868273 233.67787743 -15.71264648 228.00756836 C-15.71343342 226.87868984 -15.71422035 225.74981132 -15.71503112 224.58672436 C-15.7280927 206.29695941 -15.75175068 188.00722269 -15.77930995 169.71747451 C-15.80734323 150.95698142 -15.82402342 132.19650314 -15.83011705 113.43598998 C-15.8342378 101.85543324 -15.84726294 90.27495629 -15.87160096 78.69442411 C-15.88743251 70.75821688 -15.89225778 62.82205102 -15.88835569 54.88582914 C-15.88643013 50.30387817 -15.88942649 45.72206681 -15.90546799 41.14014053 C-15.92004248 36.94669388 -15.92081992 32.75348104 -15.91054825 28.56002374 C-15.90927831 27.04175275 -15.91310466 25.52346731 -15.92250111 24.00522487 C-15.9345252 21.94274849 -15.9280615 19.88111822 -15.91699505 17.81865501 C-15.91870379 16.09966108 -15.91870379 16.09966108 -15.92044705 14.34593999 C-15.33993939 9.40870145 -13.66034656 6.18096085 -9.98535156 2.86450195 C-6.33241139 0.33554337 -4.42210329 0.0424459 0 0 Z M-193.54785156 114.17700195 C-193.54785156 204.92700195 -193.54785156 295.67700195 -193.54785156 389.17700195 C-178.36785156 389.17700195 -163.18785156 389.17700195 -147.54785156 389.17700195 C-147.54785156 298.42700195 -147.54785156 207.67700195 -147.54785156 114.17700195 C-162.72785156 114.17700195 -177.90785156 114.17700195 -193.54785156 114.17700195 Z M-291.54785156 211.17700195 C-291.54785156 269.91700195 -291.54785156 328.65700195 -291.54785156 389.17700195 C-276.03785156 389.17700195 -260.52785156 389.17700195 -244.54785156 389.17700195 C-244.54785156 330.43700195 -244.54785156 271.69700195 -244.54785156 211.17700195 C-260.05785156 211.17700195 -275.56785156 211.17700195 -291.54785156 211.17700195 Z M-388.54785156 260.17700195 C-388.54785156 302.74700195 -388.54785156 345.31700195 -388.54785156 389.17700195 C-373.03785156 389.17700195 -357.52785156 389.17700195 -341.54785156 389.17700195 C-341.54785156 346.60700195 -341.54785156 304.03700195 -341.54785156 260.17700195 C-357.05785156 260.17700195 -372.56785156 260.17700195 -388.54785156 260.17700195 Z " fill="#A09E28" transform="translate(426.5478515625,107.822998046875)"/>
<path d="M0 0 C7.21763045 5.11343098 10.78730485 11.94060927 13.2421875 20.328125 C14.16940272 29.36847342 13.12747092 37.41579254 7.8046875 45.015625 C2.12340063 51.92529823 -4.55875266 56.45979725 -13.5078125 57.765625 C-14.60778564 57.57782471 -15.70775879 57.39002441 -16.84106445 57.1965332 C-21.0610949 56.54116143 -24.48825294 56.15132497 -28.5078125 57.765625 C-34.50748903 62.8080873 -38.195476 70.43084111 -42.1328125 77.078125 C-43.36183382 79.06178767 -44.59687843 81.04173 -45.83764648 83.01806641 C-47.76846891 86.09724523 -49.69392885 89.17888015 -51.59953308 92.27374268 C-57.99111608 102.65364983 -64.78312139 112.74381246 -71.64642334 122.81576538 C-74.13891152 126.47550284 -76.61865667 130.1437779 -79.09791565 133.81248474 C-80.68093943 136.15456533 -82.26619895 138.49511761 -83.85180664 140.83544922 C-84.30387482 141.50727234 -84.75594299 142.17909546 -85.22171021 142.87127686 C-86.05767451 144.10259992 -86.90564175 145.32588842 -87.76730347 146.53936768 C-88.73143887 147.91396366 -89.62733476 149.33599912 -90.5078125 150.765625 C-89.94655946 153.36142031 -88.81482557 155.24855036 -87.46875 157.515625 C-83.13207358 165.75219029 -82.84674511 175.40656086 -85.578125 184.21875 C-89.57558937 192.91268891 -94.91479259 198.52595557 -103.7578125 202.203125 C-112.45762933 204.98273453 -120.83998039 204.91031947 -129.19140625 201.08984375 C-137.27599746 196.46812972 -142.41958153 190.03592221 -145.8203125 181.453125 C-146.43450746 178.15880658 -146.57794576 175.36651273 -146.55078125 172.03515625 C-146.54457764 171.04749268 -146.53837402 170.0598291 -146.53198242 169.04223633 C-146.52400635 168.29095459 -146.51603027 167.53967285 -146.5078125 166.765625 C-147.78458862 166.13116455 -147.78458862 166.13116455 -149.0871582 165.48388672 C-152.29948475 163.8868971 -155.51040555 162.28709777 -158.72094727 160.68652344 C-160.10045881 159.99925428 -161.48033109 159.31270862 -162.8605957 158.62695312 C-164.86509171 157.63089408 -166.86820173 156.63209231 -168.87109375 155.6328125 C-169.525867 155.30802917 -170.18064026 154.98324585 -170.85525513 154.64862061 C-175.78911589 152.18211535 -180.55411441 149.48314745 -185.26245117 146.60595703 C-187.48638531 145.49940857 -187.48638531 145.49940857 -189.65356445 146.5246582 C-190.26546631 146.93417725 -190.87736816 147.34369629 -191.5078125 147.765625 C-192.3121875 148.25160156 -193.1165625 148.73757812 -193.9453125 149.23828125 C-195.65481349 150.29890153 -197.36314729 151.36140538 -199.0703125 152.42578125 C-203.44127439 154.82840934 -207.23011298 154.95007781 -212.1953125 155.015625 C-213.93361328 155.05429687 -213.93361328 155.05429687 -215.70703125 155.09375 C-218.95775522 154.81311196 -221.21463223 154.29707998 -224.24536133 153.24511719 C-225.04637772 152.9696405 -225.8473941 152.69416382 -226.67268372 152.41033936 C-227.27827621 152.19758362 -227.88386871 151.98482788 -228.5078125 151.765625 C-235.51410394 158.42393489 -242.47878728 165.12232259 -249.39427471 171.87490463 C-252.60704214 175.00947095 -255.83218757 178.12862304 -259.09008789 181.21630859 C-262.23554735 184.19843497 -265.34258459 187.21607008 -268.42679787 190.26145172 C-269.60800213 191.41499747 -270.8023099 192.55528477 -272.00961876 193.68148041 C-275.69167259 197.12573835 -278.98020561 200.37602657 -281.5078125 204.765625 C-281.56185075 209.29239046 -280.20350533 212.63478557 -278.5078125 216.765625 C-277.36256698 225.32478294 -279.3842952 233.12353132 -284.203125 240.28515625 C-289.84061716 247.1665485 -296.69251384 251.34837441 -305.5078125 252.765625 C-315.22414624 253.42435949 -322.75686416 250.89958054 -330.40234375 244.875 C-333.31253192 243.34161699 -334.33058674 243.85636539 -337.5078125 244.765625 C-340.50168483 246.06602586 -343.40102398 247.53779718 -346.30859375 249.01953125 C-347.5631562 249.64999611 -347.5631562 249.64999611 -348.84306335 250.29319763 C-351.50502358 251.63255172 -354.16268142 252.98020451 -356.8203125 254.328125 C-358.62797748 255.23948336 -360.43591721 256.150297 -362.24414062 257.06054688 C-366.66857355 259.28927232 -371.08916735 261.52544817 -375.5078125 263.765625 C-375.50477615 264.38553818 -375.50173981 265.00545135 -375.49861145 265.64414978 C-375.49624985 266.45630447 -375.49388824 267.26845917 -375.49145508 268.10522461 C-375.48841873 268.91076279 -375.48538239 269.71630096 -375.48225403 270.54624939 C-375.58395117 279.37714363 -379.17017834 285.88675287 -384.8203125 292.453125 C-393.74650445 300.1338018 -401.8765004 301.77262077 -413.45996094 301.03515625 C-420.23743574 300.14312809 -426.37888514 296.38143572 -431.0078125 291.453125 C-436.75806527 283.8200461 -439.30710164 275.22387982 -438.5078125 265.765625 C-436.71753826 255.9494603 -431.87027919 248.72603029 -423.70703125 243.01953125 C-415.40300098 238.28490653 -406.58809386 237.54560627 -397.4453125 239.890625 C-392.9736726 241.32099428 -389.84685233 243.51096832 -386.39453125 246.65625 C-384.57224649 247.97558538 -384.57224649 247.97558538 -382.43774414 247.57006836 C-375.6373669 245.7029537 -369.29895061 242.36379807 -362.95019531 239.34155273 C-361.1582223 238.50065136 -359.35590211 237.68144995 -357.54394531 236.88452148 C-348.95942685 233.23700949 -348.95942685 233.23700949 -341.5078125 227.765625 C-340.04835402 223.84200643 -339.89046669 221.1574466 -340.24438477 217.00878906 C-340.73464444 210.9730064 -337.9035719 206.04019587 -334.8203125 201.015625 C-327.3164886 193.71460715 -318.97328034 189.85662907 -308.5078125 189.765625 C-304.30982325 190.31318882 -300.18765316 191.15900939 -296.20210266 192.59825134 C-293.33558354 193.06278799 -293.33558354 193.06278799 -290.89445496 190.87379456 C-289.93920758 189.93594661 -289.00040866 188.98117232 -288.07495117 188.01391602 C-287.5572818 187.4971228 -287.03961243 186.98032959 -286.5062561 186.44787598 C-284.79815983 184.73559844 -283.11229301 183.00305081 -281.42578125 181.26953125 C-280.24596713 180.078527 -279.06482154 178.88884036 -277.88240051 177.70042419 C-274.77339211 174.56850357 -271.68281915 171.41898497 -268.59570312 168.26550293 C-265.44254677 165.05097669 -262.27234285 161.85336272 -259.10351562 158.65429688 C-252.88811323 152.37453959 -246.69204912 146.07606567 -240.5078125 139.765625 C-240.71934464 139.1575853 -240.93087677 138.54954559 -241.14881897 137.92308044 C-241.56060646 136.71870079 -241.56060646 136.71870079 -241.98071289 135.48999023 C-242.25412003 134.69632553 -242.52752716 133.90266083 -242.80921936 133.08494568 C-245.18833908 125.18629732 -244.23561027 116.34633004 -240.765625 108.9453125 C-236.34879529 101.29130325 -230.39946014 96.74109809 -222.2578125 93.453125 C-212.62923194 91.68788523 -203.56787183 92.00420887 -195.12890625 97.2421875 C-187.99781621 102.3878505 -183.82889498 108.27562109 -181.5078125 116.765625 C-181.3125 120.4140625 -181.3125 120.4140625 -181.3828125 124.140625 C-181.40085937 125.38585937 -181.41890625 126.63109375 -181.4375 127.9140625 C-181.47230469 129.32558594 -181.47230469 129.32558594 -181.5078125 130.765625 C-180.68434326 131.00531006 -179.86087402 131.24499512 -179.01245117 131.49194336 C-174.88164549 132.99319123 -171.25637997 134.9981816 -167.43359375 137.14453125 C-165.86413674 137.99302693 -164.29312111 138.83864484 -162.72070312 139.68164062 C-160.26112848 141.00080667 -157.8141173 142.33165401 -155.38891602 143.71313477 C-147.81305575 148.15499819 -147.81305575 148.15499819 -139.5078125 150.765625 C-135.78023467 149.70267659 -133.73010926 148.35757438 -130.85620117 145.78881836 C-126.04760423 141.64609637 -120.95529046 141.51097599 -114.8203125 141.578125 C-113.51707031 141.58457031 -112.21382813 141.59101563 -110.87109375 141.59765625 C-107.5078125 141.765625 -107.5078125 141.765625 -104.5078125 142.765625 C-104.29165283 142.11279541 -104.07549316 141.45996582 -103.8527832 140.78735352 C-102.01821248 136.66564688 -99.53610239 133.13024356 -96.98828125 129.41796875 C-96.42549469 128.58915192 -95.86270813 127.76033508 -95.28286743 126.90640259 C-94.06252091 125.10957655 -92.84019457 123.3140939 -91.61611938 121.51980591 C-88.33683188 116.71104216 -85.07459666 111.890748 -81.8125 107.0703125 C-80.79670616 105.56988152 -80.79670616 105.56988152 -79.76039124 104.03913879 C-72.19936863 92.85562571 -64.75005543 81.59912119 -57.3203125 70.328125 C-56.68644623 69.36856903 -56.05257996 68.40901306 -55.39950562 67.42037964 C-53.6062609 64.70508341 -51.8161985 61.98772105 -50.02734375 59.26953125 C-49.49533356 58.46415924 -48.96332336 57.65878723 -48.41519165 56.82901001 C-47.92731171 56.08565399 -47.43943176 55.34229797 -46.93676758 54.57641602 C-46.51349686 53.93334 -46.09022614 53.29026398 -45.65412903 52.62770081 C-44.46999696 50.70419746 -43.38587616 48.84880349 -42.5078125 46.765625 C-43.29401307 44.63143334 -43.29401307 44.63143334 -44.7578125 42.578125 C-49.50868138 34.62106866 -50.48818208 26.84977191 -48.5078125 17.765625 C-46.28776502 11.73978183 -43.44212263 6.95978861 -38.5078125 2.765625 C-37.363125 1.71375 -37.363125 1.71375 -36.1953125 0.640625 C-25.39295915 -6.89590059 -11.17005013 -6.47802365 0 0 Z M-27.47265625 14.4375 C-30.46176943 17.59165624 -32.29378709 20.09976817 -33.6328125 24.265625 C-33.43088335 29.91964132 -32.1750388 34.0983987 -28.1328125 38.140625 C-23.06214618 41.27960891 -19.64298283 42.22030024 -13.72265625 41.36328125 C-8.6521679 39.99505423 -6.13034798 36.82995985 -3.5703125 32.453125 C-1.89568669 26.64118837 -2.44236808 22.78235907 -5.2578125 17.453125 C-8.30706798 13.81095873 -10.83317532 12.23889203 -15.3828125 10.953125 C-20.20550679 10.66376334 -23.70418345 11.23092672 -27.47265625 14.4375 Z M-226.5078125 116.578125 C-228.15046637 121.81408421 -228.20948543 125.84525699 -226.3203125 131.015625 C-223.96882041 134.5834061 -221.32339093 136.85783579 -217.5078125 138.765625 C-212.61147942 139.30281262 -208.6400566 139.28981208 -204.1328125 137.203125 C-199.95334903 133.32219463 -197.34599231 129.58231772 -197.0078125 123.765625 C-197.27021714 119.39785747 -198.66007739 116.08378243 -201.5078125 112.765625 C-205.33592498 109.48023227 -209.32128524 108.02686665 -214.453125 108.31640625 C-219.67532649 109.45814232 -223.45075498 112.27913787 -226.5078125 116.578125 Z M-127.86328125 163.49609375 C-130.40330398 167.83927254 -131.09082491 171.62678653 -130.25 176.5859375 C-128.61586105 181.38514558 -125.37679205 184.66340629 -121.0703125 187.203125 C-116.22747364 188.26618719 -112.27948591 188.43227729 -107.8203125 186.140625 C-104.3080249 183.86238439 -102.29390066 181.62357543 -100.5078125 177.765625 C-99.71815232 172.76715746 -99.92668198 168.97258839 -102.1328125 164.390625 C-105.97317279 160.14601626 -109.12545524 157.56255649 -114.9453125 157.265625 C-120.4149343 157.56028476 -124.43788512 159.1230376 -127.86328125 163.49609375 Z M-321.3828125 211.265625 C-324.8620359 215.35882901 -324.86002171 219.09810445 -324.77734375 224.26171875 C-324.36508309 228.09156052 -323.14973288 229.9916086 -320.5078125 232.765625 C-316.51624453 235.73001746 -312.88146315 237.11472554 -307.8828125 236.828125 C-303.12487045 236.00779016 -300.7893813 234.28159157 -297.5078125 230.765625 C-294.42585669 226.39123611 -294.13045502 223.0750373 -294.93359375 217.9453125 C-296.09181545 213.54879746 -298.28943945 210.72056604 -301.8203125 207.953125 C-309.52649663 204.5480669 -315.07618564 205.78160164 -321.3828125 211.265625 Z M-419.8828125 261.515625 C-422.16254417 266.07508834 -423.34637565 269.90096826 -421.87890625 274.9140625 C-419.75070069 279.70475116 -417.28549278 282.37678486 -412.5078125 284.765625 C-407.62334478 286.22057283 -404.17018068 285.81052332 -399.5078125 283.765625 C-395.58287832 280.42591957 -392.96622094 277.1917846 -391.3828125 272.265625 C-391.58474165 266.61160868 -392.8405862 262.4328513 -396.8828125 258.390625 C-405.55252717 253.02365878 -413.08789618 253.64782716 -419.8828125 261.515625 Z " fill="#A09E27" transform="translate(468.5078125,4.234375)"/>
</svg>
