<?xml version="1.0" encoding="UTF-8"?>
<svg version="1.1" xmlns="http://www.w3.org/2000/svg" width="512" height="512">
<path d="M0 0 C0.33 0 0.66 0 1 0 C1.03440186 0.63687744 1.06880371 1.27375488 1.10424805 1.92993164 C3.89948941 50.39378313 21.69169326 92.64562006 57.3125 126.125 C88.60810403 153.8351105 127.62696731 167.18209402 169 169 C169 169.33 169 169.66 169 170 C167.94594971 170.09704224 167.94594971 170.09704224 166.87060547 170.19604492 C138.3173205 172.9000424 113.31874789 178.47345211 88 192 C86.97390625 192.54269531 85.9478125 193.08539063 84.890625 193.64453125 C66.4987511 203.85947743 49.60899612 218.15732635 37 235 C36.60361328 235.52142578 36.20722656 236.04285156 35.79882812 236.58007812 C13.00443607 266.69996904 2.39235604 301.50241139 1 339 C0.67 339 0.34 339 0 339 C-0.09704224 337.94594971 -0.09704224 337.94594971 -0.19604492 336.87060547 C-4.41532481 292.31645855 -17.86392944 255.41221001 -48 222 C-48.67546875 221.25105469 -49.3509375 220.50210938 -50.046875 219.73046875 C-81.25028893 186.99355371 -124.33291495 174.20137423 -168 170 C-168 169.67 -168 169.34 -168 169 C-167.4237085 168.96559814 -166.84741699 168.93119629 -166.25366211 168.89575195 C-117.67858393 165.80683098 -74.87818223 147.26507276 -42 111 C-14.62166076 79.07238989 -3.39662341 41.20640508 0 0 Z " fill="#FFD93A" transform="translate(169,150)"/>
<path d="M0 0 C0.33 0 0.66 0 1 0 C1.13462646 1.08547119 1.13462646 1.08547119 1.27197266 2.19287109 C4.67088316 28.89738708 10.66108512 50.94974548 28 72 C28.77085937 72.93585938 29.54171875 73.87171875 30.3359375 74.8359375 C48.05997026 95.31321806 74.44980147 108.74690584 101.4296875 111.328125 C103.47615203 111.47535266 105.5245077 111.59987653 107.57421875 111.69140625 C110 112 110 112 113 114 C111.73027344 114.09796875 110.46054687 114.1959375 109.15234375 114.296875 C82.54760845 116.5280053 60.55932259 124.82123716 40 142 C39.33484375 142.51820313 38.6696875 143.03640625 37.984375 143.5703125 C13.09502973 163.70437635 4.35330588 195.62299379 1 226 C0.67 226 0.34 226 0 226 C-0.08636719 224.77667969 -0.17273438 223.55335938 -0.26171875 222.29296875 C-2.61075462 192.74659445 -12.39415749 168.56514616 -33 147 C-33.53753906 146.39929688 -34.07507813 145.79859375 -34.62890625 145.1796875 C-54.34397577 123.93287073 -83.09012254 115.95194341 -111 114 C-107.40980428 111.60653619 -104.41723295 111.48827119 -100.25 111.125 C-70.32479732 108.02719917 -44.64167147 93.54377319 -25 71 C-8.3579795 50.21601622 -1.84488629 26.13129988 0 0 Z " fill="#FFB02F" transform="translate(345,12)"/>
<path d="M0 0 C0.33 0 0.66 0 1 0 C1.08636719 1.11375 1.17273438 2.2275 1.26171875 3.375 C3.57246366 29.73611762 13.97898103 53.2605619 34.23046875 70.79296875 C49.97408896 83.33901306 68.83111527 90.92612061 88.99609375 91.7265625 C91 92 91 92 93 94 C91.8140625 94.08636719 90.628125 94.17273438 89.40625 94.26171875 C63.70343544 96.38558712 40.18740401 106.10080558 23 126 C8.64171616 143.89999386 2.76505145 163.47583602 1 186 C0.67 186 0.34 186 0 186 C-0.15855469 184.741875 -0.31710937 183.48375 -0.48046875 182.1875 C-3.3731018 160.4532586 -9.24711598 138.98693293 -25.73046875 123.359375 C-27 122 -27 122 -27 120 C-27.59296875 119.73316406 -28.1859375 119.46632813 -28.796875 119.19140625 C-31.03818625 117.97934963 -32.44578186 116.72064083 -34.25 114.9375 C-50.24112081 100.70005229 -71.14149736 95.24235596 -92 94 C-91.505 93.01 -91.505 93.01 -91 92 C-88.4235265 91.61852449 -85.903529 91.34540626 -83.3125 91.125 C-58.72895922 88.55622462 -37.02737122 76.84715707 -21 58 C-7.58200258 40.85055041 -2.49957019 21.26105 0 0 Z " fill="#FFB02F" transform="translate(419,314)"/>
</svg>
